<svg width="1115" height="176" viewBox="0 0 1115 176" fill="none" xmlns="http://www.w3.org/2000/svg">
<g filter="url(#filter0_d_74_10)">
<path d="M62.9 145.2C52.0333 145.2 42.8333 143.1 35.3 138.9C27.8333 134.7 21.8 129.133 17.2 122.2C12.6667 115.2 9.36667 107.433 7.3 98.9C5.23333 90.3667 4.2 81.7333 4.2 73C4.2 64.7333 5.23333 56.3667 7.3 47.9C9.43333 39.3667 12.8 31.5333 17.4 24.4C22.0667 17.2 28.1333 11.4333 35.6 7.09999C43.0667 2.76666 52.1667 0.599998 62.9 0.599998C71.7667 0.599998 79.4667 2.1 86 5.09999C92.5333 8.03333 97.9333 11.8667 102.2 16.6C106.533 21.2667 109.833 26.1667 112.1 31.3L88.9 42.1C86.6333 38.6333 84.3 35.6667 81.9 33.2C79.5 30.6667 76.7667 28.7333 73.7 27.4C70.7 26 67.1 25.3 62.9 25.3C56.9 25.3 51.8667 26.7667 47.8 29.7C43.7333 32.5667 40.4667 36.3667 38 41.1C35.5333 45.8333 33.7667 51 32.7 56.6C31.6333 62.2 31.1 67.6667 31.1 73C31.1 78.6667 31.7 84.3 32.9 89.9C34.1 95.5 36 100.6 38.6 105.2C41.2 109.8 44.5 113.5 48.5 116.3C52.5 119.033 57.3 120.4 62.9 120.4C68.9 120.4 73.9333 118.733 78 115.4C82.1333 112 85.8 107.667 89 102.4L112.7 111.3C109.7 117.767 105.933 123.567 101.4 128.7C96.8667 133.833 91.4333 137.867 85.1 140.8C78.7667 143.733 71.3667 145.2 62.9 145.2ZM167.519 145.4C156.319 145.4 146.819 143.3 139.019 139.1C131.219 134.833 124.919 129.2 120.119 122.2C115.385 115.133 111.919 107.333 109.719 98.8C107.519 90.2667 106.419 81.6667 106.419 73C106.419 64.3333 107.519 55.7333 109.719 47.2C111.919 38.6667 115.385 30.9 120.119 23.9C124.919 16.8333 131.219 11.2 139.019 7C146.819 2.73333 156.319 0.599998 167.519 0.599998C178.719 0.599998 188.185 2.73333 195.919 7C203.719 11.2 209.985 16.8333 214.719 23.9C219.519 30.9 222.985 38.6667 225.119 47.2C227.319 55.7333 228.419 64.3333 228.419 73C228.419 81.6667 227.319 90.2667 225.119 98.8C222.985 107.333 219.519 115.133 214.719 122.2C209.985 129.2 203.719 134.833 195.919 139.1C188.185 143.3 178.719 145.4 167.519 145.4ZM167.519 120.5C173.785 120.5 179.085 119.033 183.419 116.1C187.819 113.167 191.352 109.333 194.019 104.6C196.685 99.8667 198.619 94.7333 199.819 89.2C201.019 83.6 201.619 78.2 201.619 73C201.619 67.4 201.019 61.8 199.819 56.2C198.685 50.5333 196.785 45.4 194.119 40.8C191.519 36.1333 188.019 32.4 183.619 29.6C179.285 26.7333 173.919 25.3 167.519 25.3C161.052 25.3 155.619 26.7667 151.219 29.7C146.885 32.6333 143.385 36.5 140.719 41.3C138.119 46.0333 136.219 51.2 135.019 56.8C133.885 62.3333 133.319 67.7333 133.319 73C133.319 78.5333 133.885 84.1 135.019 89.7C136.219 95.3 138.152 100.433 140.819 105.1C143.552 109.767 147.085 113.5 151.419 116.3C155.819 119.1 161.185 120.5 167.519 120.5ZM288.755 145.4C277.021 145.4 266.988 143.233 258.655 138.9C250.388 134.5 244.055 128.133 239.655 119.8C235.321 111.467 233.155 101.4 233.155 89.6V2.99999H259.055V89.6C259.055 100.2 261.421 108 266.155 113C270.888 118 278.421 120.5 288.755 120.5C295.288 120.5 300.755 119.467 305.155 117.4C309.555 115.333 312.855 112.033 315.055 107.5C317.255 102.9 318.355 96.9333 318.355 89.6V2.99999H344.355V89.6C344.355 99.4667 342.888 107.933 339.955 115C337.088 122.067 333.088 127.867 327.955 132.4C322.888 136.867 316.988 140.167 310.255 142.3C303.521 144.367 296.355 145.4 288.755 145.4ZM354.538 143V2.99999H418.238C429.904 2.99999 439.104 5.03332 445.837 9.09999C452.638 13.1 457.471 18.4 460.338 25C463.271 31.6 464.738 38.7 464.738 46.3C464.738 51.5667 463.704 56.9 461.638 62.3C459.638 67.7 456.571 72.5667 452.438 76.9C448.304 81.2333 443.104 84.4333 436.838 86.5L464.438 143H435.338L408.838 90H380.438V143H354.538ZM380.438 65.6H418.638C423.504 65.6 427.338 64.7 430.138 62.9C433.004 61.0333 435.038 58.6333 436.238 55.7C437.438 52.7667 438.038 49.6667 438.038 46.4C438.038 43.4667 437.471 40.5333 436.338 37.6C435.204 34.6667 433.238 32.2333 430.438 30.3C427.638 28.3667 423.704 27.4 418.638 27.4H380.438V65.6ZM512.513 145.4C503.779 145.4 495.846 143.867 488.713 140.8C481.579 137.733 475.446 133.4 470.313 127.8C465.246 122.133 461.446 115.467 458.913 107.8L482.413 99.1C485.413 105.5 489.579 110.767 494.913 114.9C500.313 118.967 506.379 121 513.113 121C520.246 121 525.913 119.5 530.113 116.5C534.379 113.5 536.513 109.133 536.513 103.4C536.513 99.4667 535.246 96.2 532.713 93.6C530.246 90.9333 526.879 88.6667 522.613 86.8C518.413 84.8667 513.646 83 508.313 81.2C503.179 79.4667 498.013 77.5333 492.813 75.4C487.613 73.2667 482.846 70.6667 478.513 67.6C474.179 64.4667 470.679 60.5333 468.013 55.8C465.413 51.0667 464.113 45.2667 464.113 38.4C464.113 31.5333 465.946 25.2333 469.613 19.5C473.279 13.7667 478.579 9.19999 485.513 5.79999C492.513 2.33333 500.979 0.599998 510.913 0.599998C519.046 0.599998 526.246 2 532.513 4.79999C538.846 7.53333 544.079 11.2667 548.213 16C552.346 20.7333 555.213 26.1 556.813 32.1L533.613 39.8C531.746 35.6 528.879 32.1 525.013 29.3C521.213 26.4333 516.046 25 509.513 25C503.379 25 498.613 26.2 495.213 28.6C491.813 31 490.113 34.4 490.113 38.8C490.113 41.8 491.246 44.3667 493.513 46.5C495.846 48.5667 498.946 50.4333 502.813 52.1C506.746 53.7667 511.179 55.4667 516.113 57.2C521.646 59.0667 527.146 61.2 532.613 63.6C538.146 65.9333 543.146 68.8 547.613 72.2C552.146 75.6 555.779 79.8333 558.513 84.9C561.246 89.9 562.613 96.0333 562.613 103.3C562.613 112.233 560.379 119.833 555.912 126.1C551.513 132.367 545.546 137.167 538.013 140.5C530.479 143.767 521.979 145.4 512.513 145.4ZM567.569 143V2.99999H662.169V27.6H593.469V58.4H634.169V83H593.469V118.2H666.369V143H567.569Z" fill="#E3E3E3"/>
<path d="M671.973 143L696.573 2.99999H733.973C743.573 2.99999 751.707 4.73333 758.373 8.2C765.107 11.6667 770.54 16.3 774.673 22.1C778.807 27.8333 781.807 34.2333 783.673 41.3C785.607 48.3667 786.573 55.5333 786.573 62.8C786.573 69.7333 785.773 76.9333 784.173 84.4C782.64 91.8 780.107 99 776.573 106C773.107 112.933 768.473 119.2 762.673 124.8C756.873 130.333 749.707 134.767 741.173 138.1C732.707 141.367 722.707 143 711.173 143H671.973ZM691.973 127.2H713.373C723.773 127.2 732.507 125.2 739.573 121.2C746.707 117.133 752.407 111.9 756.673 105.5C760.94 99.0333 764.007 92.0667 765.873 84.6C767.807 77.0667 768.773 69.8667 768.773 63C768.773 55.6 767.573 48.5333 765.173 41.8C762.773 35 758.973 29.4667 753.773 25.2C748.64 20.9333 741.907 18.8 733.573 18.8H710.973L691.973 127.2ZM835.005 145.4C826.338 145.4 818.938 143.833 812.805 140.7C806.671 137.567 801.671 133.333 797.805 128C794.005 122.667 791.205 116.6 789.405 109.8C787.671 102.933 786.805 95.8 786.805 88.4C786.805 80.2667 787.705 72.0333 789.505 63.7C791.305 55.3667 794.005 47.4333 797.605 39.9C801.271 32.3667 805.838 25.6667 811.305 19.8C816.838 13.8667 823.271 9.19999 830.605 5.79999C838.005 2.33333 846.338 0.599998 855.605 0.599998C864.138 0.599998 871.438 2.2 877.505 5.4C883.571 8.59999 888.505 12.9 892.305 18.3C896.105 23.7 898.905 29.7667 900.705 36.5C902.505 43.2333 903.405 50.1333 903.405 57.2C903.405 65.4667 902.471 73.8 900.605 82.2C898.805 90.5333 896.071 98.5 892.405 106.1C888.805 113.633 884.271 120.367 878.805 126.3C873.338 132.167 866.938 136.833 859.605 140.3C852.338 143.7 844.138 145.4 835.005 145.4ZM835.005 129.4C841.871 129.4 848.038 128 853.505 125.2C858.971 122.4 863.738 118.567 867.805 113.7C871.871 108.833 875.271 103.3 878.005 97.1C880.738 90.9 882.771 84.4 884.105 77.6C885.505 70.7333 886.205 63.9333 886.205 57.2C886.205 50.5333 885.171 44.1 883.105 37.9C881.038 31.7 877.738 26.6 873.205 22.6C868.671 18.6 862.671 16.6 855.205 16.6C848.271 16.6 842.071 18.0333 836.605 20.9C831.138 23.7 826.338 27.5667 822.205 32.5C818.138 37.3667 814.738 42.9 812.005 49.1C809.338 55.2333 807.338 61.7 806.005 68.5C804.671 75.2333 804.005 81.8667 804.005 88.4C804.005 95.4667 805.038 102.133 807.105 108.4C809.171 114.6 812.471 119.667 817.005 123.6C821.538 127.467 827.538 129.4 835.005 129.4ZM950.691 145.4C942.424 145.4 935.291 143.767 929.291 140.5C923.291 137.233 918.357 132.833 914.491 127.3C910.624 121.767 907.757 115.533 905.891 108.6C904.024 101.667 903.091 94.5333 903.091 87.2C903.091 76.1333 904.657 65.4333 907.791 55.1C910.924 44.7667 915.457 35.5 921.391 27.3C927.391 19.1 934.691 12.6 943.291 7.79999C951.891 2.99999 961.624 0.599998 972.491 0.599998C979.957 0.599998 986.324 1.86666 991.591 4.4C996.924 6.93333 1001.26 10.1 1004.59 13.9C1007.99 17.7 1010.49 21.5333 1012.09 25.4L997.491 32.8C994.891 28.2 991.524 24.3667 987.391 21.3C983.324 18.1667 977.824 16.6 970.891 16.6C962.691 16.6 955.457 18.6667 949.191 22.8C942.924 26.9333 937.691 32.4 933.491 39.2C929.291 46 926.091 53.4667 923.891 61.6C921.757 69.6667 920.691 77.6667 920.691 85.6C920.691 92.8 921.757 99.7333 923.891 106.4C926.024 113.067 929.357 118.533 933.891 122.8C938.491 127.067 944.491 129.2 951.891 129.2C956.891 129.2 961.324 128.433 965.191 126.9C969.124 125.3 972.591 123.167 975.591 120.5C978.657 117.767 981.424 114.733 983.891 111.4L998.291 118.2C995.091 123.267 991.257 127.867 986.791 132C982.324 136.067 977.091 139.333 971.091 141.8C965.157 144.2 958.357 145.4 950.691 145.4ZM996.598 143L1021.2 2.99999H1038.6L1026.8 70.2L1090.2 2.99999H1110.8L1063.4 53L1095.2 143H1077L1050.6 66.6L1022.2 96.6L1014 143H996.598Z" fill="#51D55A"/>
</g>
<defs>
<filter id="filter0_d_74_10" x="0.199997" y="0.599976" width="1114.6" height="174.8" filterUnits="userSpaceOnUse" color-interpolation-filters="sRGB">
<feFlood flood-opacity="0" result="BackgroundImageFix"/>
<feColorMatrix in="SourceAlpha" type="matrix" values="0 0 0 0 0 0 0 0 0 0 0 0 0 0 0 0 0 0 127 0" result="hardAlpha"/>
<feOffset dy="26"/>
<feGaussianBlur stdDeviation="2"/>
<feComposite in2="hardAlpha" operator="out"/>
<feColorMatrix type="matrix" values="0 0 0 0 0 0 0 0 0 0 0 0 0 0 0 0 0 0 0.25 0"/>
<feBlend mode="normal" in2="BackgroundImageFix" result="effect1_dropShadow_74_10"/>
<feBlend mode="normal" in="SourceGraphic" in2="effect1_dropShadow_74_10" result="shape"/>
</filter>
</defs>
</svg>
